<svg id="Capa_1" enable-background="new 0 0 512 512" height="512" viewBox="0 0 512 512" width="512" xmlns="http://www.w3.org/2000/svg"><g><path d="m504.5 266.683h-15.151l-54.529-134.503h22.2c13.046 0 23.66-10.614 23.66-23.66 0-13.052-10.614-23.67-23.66-23.67h-90.203l-17.312-17.313c-4.467-4.466-10.41-6.926-16.734-6.926h-46.643c4.814-6.344 7.678-14.246 7.678-22.806-.001-20.846-16.96-37.805-37.806-37.805s-37.805 16.959-37.805 37.805c0 8.56 2.864 16.461 7.678 22.806h-46.643c-6.324 0-12.268 2.46-16.734 6.926l-17.312 17.313h-18.874c-4.143 0-7.5 3.357-7.5 7.5s3.357 7.5 7.5 7.5h21.98c1.989 0 3.896-.79 5.304-2.196l19.51-19.51c1.633-1.634 3.809-2.533 6.127-2.533h153.539c2.318 0 4.494.899 6.127 2.533l19.51 19.51c1.407 1.406 3.314 2.196 5.304 2.196h93.31c4.775 0 8.66 3.89 8.66 8.67 0 4.775-3.885 8.66-8.66 8.66h-100c-2.316 0-4.489-.9-6.126-2.542l-19.51-19.511c-1.407-1.407-3.314-2.197-5.304-2.197h-140.161c-1.989 0-3.896.79-5.304 2.197l-19.518 19.519c-1.629 1.634-3.802 2.534-6.118 2.534h-100c-4.775 0-8.66-3.885-8.66-8.66 0-2.317.899-4.493 2.532-6.126 1.641-1.641 3.817-2.544 6.128-2.544h36.33c4.143 0 7.5-3.357 7.5-7.5s-3.357-7.5-7.5-7.5h-36.33c-6.316 0-12.259 2.463-16.734 6.937-4.466 4.467-6.926 10.409-6.926 16.733 0 13.046 10.614 23.66 23.66 23.66h22.2l-54.529 134.503h-15.151c-4.143 0-7.5 3.357-7.5 7.5v32.325c0 4.143 3.357 7.5 7.5 7.5h2.602v22.806c0 20.846 16.959 37.805 37.805 37.805h80.813c20.846 0 37.805-16.959 37.805-37.805v-22.806h2.602c4.143 0 7.5-3.357 7.5-7.5v-32.325c0-4.143-3.357-7.5-7.5-7.5h-15.151l-54.529-134.503h55.534c6.332 0 12.277-2.466 16.733-6.937l17.312-17.313h39.271v308.257h-63.212c-4.143 0-7.5 3.357-7.5 7.5v32.903h-22.805c-4.143 0-7.5 3.357-7.5 7.5v40.41c0 4.143 3.357 7.5 7.5 7.5h242.44c4.143 0 7.5-3.357 7.5-7.5v-40.41c0-4.143-3.357-7.5-7.5-7.5h-22.805v-32.903c0-4.143-3.357-7.5-7.5-7.5h-63.215v-230.187c0-4.143-3.357-7.5-7.5-7.5s-7.5 3.357-7.5 7.5v230.187h-25.403v-308.257h25.403v43.07c0 4.143 3.357 7.5 7.5 7.5s7.5-3.357 7.5-7.5v-43.07h39.273l17.305 17.306c4.464 4.479 10.409 6.944 16.741 6.944h55.534l-54.528 134.503h-15.151c-4.143 0-7.5 3.357-7.5 7.5v32.325c0 4.143 3.357 7.5 7.5 7.5h2.602v22.806c0 20.846 16.959 37.805 37.805 37.805h80.813c20.846 0 37.805-16.959 37.805-37.805v-22.806h2.602c4.143 0 7.5-3.357 7.5-7.5v-32.325c-.001-4.143-3.358-7.5-7.501-7.5zm-248.5-251.683c12.574 0 22.805 10.23 22.805 22.805s-10.231 22.804-22.805 22.804-22.805-10.23-22.805-22.805 10.231-22.804 22.805-22.804zm-104.476 321.813c0 12.574-10.23 22.805-22.805 22.805h-80.813c-12.574 0-22.805-10.23-22.805-22.805v-22.806h126.423zm10.102-37.805h-146.626v-17.325h146.626zm-122.79-32.325 49.477-122.042 49.476 122.042zm300.579 189.907h-107.485c-4.143 0-7.5 3.357-7.5 7.5s3.357 7.5 7.5 7.5h137.79v25.41h-227.44v-25.41h54.649c4.143 0 7.5-3.357 7.5-7.5s-3.357-7.5-7.5-7.5h-24.345v-25.403h166.83v25.403zm84.272-311.949 49.477 122.042h-98.954zm-73.313 137.042h146.626v17.325h-146.626zm136.524 55.13c0 12.574-10.23 22.805-22.805 22.805h-80.813c-12.574 0-22.805-10.23-22.805-22.805v-22.806h126.423z"/></g></svg>