<svg id="Capa_1" enable-background="new 0 0 512 512" height="512" viewBox="0 0 512 512" width="512" xmlns="http://www.w3.org/2000/svg"><g><g><g><g><g><path d="m380.045 112.801c-13.579 7.982-29.044 12.191-44.795 12.191h-202.293c-15.751 0-31.216-4.209-44.795-12.191l-28.456-16.726c-16.773-9.86-27.073-27.862-27.073-47.318v-11.244.01 436.955c0 20.723 16.799 37.523 37.523 37.523h275.002c20.723 0 37.523-16.799 37.523-37.523v-363.225z" fill="#ddb7a0"/><path d="m398.052 0h-65.26c20.723 0 37.522 16.799 37.522 37.523v436.955c0 20.723-16.799 37.523-37.522 37.523h65.26c20.723 0 37.522-16.799 37.522-37.523v-436.955c0-20.724-16.799-37.523-37.522-37.523z" fill="#d6a889"/><path d="m382.68 133.132v-95.609c0-20.724-16.799-37.523-37.522-37.523h-275.002c-20.724 0-37.523 16.799-37.523 37.523v33.113c0 19.456 10.3 37.459 27.073 47.318l28.455 16.727c13.579 7.982 29.044 12.191 44.795 12.191h202.294c15.751 0 31.216-4.209 44.795-12.191z" fill="#cc9675"/><path d="m370.314 37.523v102.097c3.332-1.44 6.582-3.087 9.731-4.938l28.456-16.727c16.773-9.86 27.073-27.862 27.073-47.318v-33.114c0-20.724-16.799-37.523-37.522-37.523h-65.26c20.723 0 37.522 16.799 37.522 37.523z" fill="#c4845c"/></g><g><g><path d="m234.104 202.921c-4.269 0-7.729-3.46-7.729-7.729v-96.642c0-4.269 3.46-7.729 7.729-7.729s7.729 3.46 7.729 7.729v96.642c0 4.269-3.461 7.729-7.729 7.729z" fill="#f4fbff"/></g><g fill="#ffe07d"><circle cx="234.104" cy="87.09" r="20.735"/><circle cx="234.104" cy="206.652" r="20.735"/></g></g></g></g><g><g><g><path d="m465.325 261.112h-130.188c-7.755 0-14.042 6.287-14.042 14.042v144.115c16.691-25.541 49.129-42.586 79.136-42.586 30.007 0 62.445 17.045 79.136 42.586v-144.115c0-7.755-6.287-14.042-14.042-14.042z" fill="#bed8fb"/><path d="m400.231 368.322c-30.007 0-62.445 17.045-79.136 42.586v30.616c.001 7.754 6.287 14.04 14.041 14.041h130.191c7.755-.001 14.041-6.287 14.041-14.042v-30.615c-16.692-25.541-49.13-42.586-79.137-42.586z" fill="#407093"/><circle cx="400.231" cy="341.186" fill="#365e7d" r="35.498"/></g></g></g></g></g></svg>