<svg id="Capa_1" enable-background="new 0 0 512 512" height="512" viewBox="0 0 512 512" width="512" xmlns="http://www.w3.org/2000/svg"><g><g><g><g><g><g><path d="m257.457 0h1.664c-.003 0-.007 0-.01 0h-86.887c-32.048 0-58.028 25.98-58.028 58.029v55.972l13.86 8.454h129.402v-122.455z" fill="#efc984"/></g><path d="m297.896 280.319-81.313-2.858-81.347 2.858-74.436 23.567c-25.182 7.973-42.295 31.342-42.295 57.755v91.16c0 12.288 9.962 22.25 22.25 22.25h351.623c12.288 0 22.25-9.962 22.25-22.25v-91.16c0-26.414-17.114-49.783-42.295-57.755z" fill="#4a80aa"/><g><path d="m372.332 303.886-74.436-23.567-65.328-2.296-.751 24.739 74.436 23.567c25.182 7.973 42.295 31.342 42.295 57.755v90.967h43.829c12.288 0 22.25-9.962 22.25-22.25v-91.16c.001-26.413-17.113-49.782-42.295-57.755z" fill="#365e7d"/></g><g><path d="m297.896 280.319-81.313-2.858-81.347 2.858c-3.437 59.88 60.431 154.163 84.858 194.728 24.428-40.565 81.239-134.848 77.802-194.728z" fill="#e4f6ff"/></g><path d="m254.705 445.249-25.24-95.352h-25.764l-21.382 96.187 37.776 28.964z" fill="#8fddc1"/><g><g><g><g><g><g><g><g><path d="m262.122 275.86v-57.53h-91.145v57.53c0 25.169 45.573 52.612 45.573 52.612s45.572-27.443 45.572-52.612z" fill="#ffddce"/></g></g></g></g></g></g></g><path d="m257.457 158.678v-88.718c-27.343 8.542-56.696 8.314-83.932-.684l-.033-.011c-11.983-3.959-24.33 4.965-24.33 17.586v9.605c0 9.69-7.855 17.545-17.544 17.545h-17.422v28.69c0 7.331 5.943 13.274 13.274 13.274 2.313 0 4.195 1.812 4.341 4.12 2.479 39.312 31.686 71.368 69.661 78.174 32.327-12.154 55.434-43.131 55.985-79.581z" fill="#ffddce"/><path d="m293.69 33.729h-.85c-4.703 0-8.516-3.813-8.516-8.515.001-13.926-11.288-25.214-25.213-25.214h-7.284v122.455h50.512l16.563-8.454v-55.058c.001-13.926-11.287-25.214-25.212-25.214z" fill="#eabc6b"/><path d="m301.481 114.001c-9.689 0-17.544-7.855-17.544-17.544v-9.602c0-12.622-12.349-21.546-24.333-17.585-2.573.85-5.169 1.595-7.776 2.289v84.406c-.57 37.698-25.687 69.44-60.08 79.938 7.846 2.393 16.171 3.691 24.802 3.691 45.083 0 81.94-35.131 84.739-79.509.146-2.308 2.028-4.12 4.341-4.12 7.331 0 13.274-5.943 13.274-13.274v-28.69z" fill="#ffcbbe"/></g><g><g><g><g><g><path d="m216.549 311.04-24.267 20.989c-5.992 5.182-15.121 4.201-19.874-2.138l-37.172-49.572 13.413-11.686c6.566-5.72 16.391-5.557 22.764.377z" fill="#f4fbff"/></g></g></g></g></g><g><g><g><g><g><g><path d="m216.583 311.04 24.267 20.989c5.992 5.182 15.121 4.201 19.874-2.138l37.172-49.572-13.414-11.686c-6.566-5.72-16.391-5.557-22.764.377z" fill="#f4fbff"/></g></g></g></g></g></g></g><g fill="#365e7d"><path d="m135.236 280.319-5.931 1.103c-13.093 2.434-24.508 10.573-30.772 22.326-2.756 5.171-4.778 10.934-4.778 16.714 0 8.705 13.467 19.482 21.636 25.219 2.804 1.969 3.239 6.287.87 8.849-4.622 4.998-10.374 13.502-8.633 23.637 5.033 29.303 57.714 72.487 90.546 96.88h21.922c-24.429-40.565-88.296-134.848-84.86-194.728z"/><path d="m242.01 475.048c32.831-24.394 85.513-67.578 90.546-96.88 1.741-10.135-4.011-18.639-8.633-23.637-2.369-2.562-1.934-6.88.87-8.849 8.169-5.737 21.636-16.514 21.636-25.219 0-4.538-1.246-9.065-3.116-13.304-6.069-13.761-19.132-23.156-34.027-25.243l-11.39-1.595c3.437 59.88-53.374 154.163-77.801 194.728h21.915z"/></g></g><path d="m189.643 333.811 14.058 16.086h25.764l13.746-16.223-26.628-22.634z" fill="#77ceaf"/></g></g><path d="m431.837 396.304c.883-22.31-9.385-42.484-25.83-54.922-1.809-1.368-4.305-1.361-6.164-.06-5.268 3.688-9.183 7.895-11.954 11.541-2.709 3.564-8.112 3.476-10.759-.134-6.402-8.728-19.372-20.568-42.738-20.888-34.312-.47-63.142 27.882-63.119 62.198.034 50.099 45.809 85.946 78.588 105.195 1.681.987 3.76.961 5.421-.059 32.732-20.108 74.663-55.052 76.555-102.871z" fill="#e28086"/><g><path d="m431.972 331.838c-14.474-.132-25.201 4.434-32.907 10.045 17.82 11.686 29.211 32.336 28.3 55.342-1.907 48.179-45.974 82.801-78.015 101.706 6.252 3.689 12.049 6.783 16.982 9.259 10.104 5.071 21.989 5.081 32.094.011 30.207-15.158 92.738-53.383 95.017-110.976 1.398-35.297-26.147-65.065-61.471-65.387z" fill="#dd636e"/></g></g></svg>